<?xml version="1.0" encoding="utf-8"?>
<!-- Generator: Adobe Illustrator 16.0.0, SVG Export Plug-In . SVG Version: 6.00 Build 0)  -->
<!DOCTYPE svg PUBLIC "-//W3C//DTD SVG 1.1//EN" "http://www.w3.org/Graphics/SVG/1.1/DTD/svg11.dtd">
<svg version="1.1" id="Calque_1" xmlns="http://www.w3.org/2000/svg" xmlns:xlink="http://www.w3.org/1999/xlink" x="0px" y="0px"
	 width="1200px" height="414.864px" viewBox="0 295.271 1200 414.864" enable-background="new 0 295.271 1200 414.864"
	 xml:space="preserve">
<g>
	<g>
		<g id="XMLID_63_">
			<path id="XMLID_71_" fill="#ffffff" d="M105.405,473.648v231.081H31.081V473.648H0v-60.811h31.081v-16.216
				c0-35.136,9.459-60.812,28.378-77.027c18.919-16.217,48.648-24.324,87.838-24.324v62.162c-14.865,0-25.676,2.702-32.433,9.459
				c-6.757,5.405-9.459,14.865-9.459,29.73v16.216"/>
			<path id="XMLID_69_" fill="#ffffff" d="M478.378,412.838v291.892h-74.324v-44.595c-18.919,32.433-48.649,47.298-90.541,47.298
				c-32.433,0-59.459-10.811-81.081-32.433c-21.622-21.622-31.081-52.703-31.081-91.892V412.838h74.324v160.811
				c0,22.974,5.405,40.541,17.567,52.703s27.027,18.919,47.297,18.919s36.486-6.757,47.297-18.919
				c12.162-12.162,17.567-29.73,17.567-52.703V412.838H478.378z"/>
			<path id="XMLID_67_" fill="#ffffff" d="M572.973,434.459c21.622-17.567,50-25.675,85.136-25.675
				c35.135,0,63.513,8.107,85.135,25.675c21.622,17.568,32.433,40.541,33.784,68.919h-75.676
				c-2.703-24.324-17.567-36.486-45.946-36.486c-13.514,0-24.324,2.703-32.433,8.108c-8.107,5.405-12.162,13.514-12.162,22.973
				c0,9.46,5.405,17.568,17.567,22.974s25.676,9.459,41.893,13.513c16.216,2.703,32.432,6.757,48.648,12.163
				c16.216,5.405,29.729,13.513,41.892,25.675s17.567,28.379,17.567,48.649c0,25.676-10.811,47.297-33.783,64.864
				c-21.622,16.217-51.352,24.324-85.136,24.324c-35.135,0-63.514-8.107-85.135-24.324c-21.622-16.216-33.784-39.188-36.486-70.27
				h75.676c2.702,24.324,18.919,36.486,47.297,36.486c13.514,0,24.324-2.703,33.784-9.46c8.107-6.757,12.162-14.864,12.162-24.324
				c0-9.459-5.405-17.567-17.567-24.324c-12.162-5.405-25.676-10.811-41.893-13.514c-16.216-2.702-32.432-6.757-48.648-12.162
				c-16.216-4.054-29.729-12.162-41.892-24.324s-17.567-27.027-17.567-45.946C540.541,472.297,551.352,452.027,572.973,434.459z"/>
			<path id="XMLID_64_" fill="#ffffff" d="M863.514,666.892c-27.027-27.026-40.541-63.514-40.541-109.459
				c0-45.946,13.514-81.081,40.541-108.108s62.162-40.54,104.054-40.54c43.243,0,77.027,13.513,105.405,39.188
				c27.027,27.027,40.541,62.162,40.541,106.757c0,10.812-1.352,20.271-2.703,28.379H898.648
				c1.352,18.919,9.46,33.783,21.622,45.945s28.378,17.567,47.297,17.567c25.676,0,44.595-10.811,56.757-31.08h79.729
				c-8.108,28.378-24.324,50-48.648,67.567s-54.054,25.676-87.838,25.676C924.324,708.784,889.189,695.271,863.514,666.892z
				 M967.567,470.946c-18.919,0-33.784,5.405-45.946,17.567s-20.27,27.027-22.973,45.945h137.838
				c-1.352-18.918-8.108-35.135-21.621-45.945C1001.352,477.703,986.486,470.946,967.567,470.946z"/>
		</g>
	</g>
	<circle fill="#ffffff" cx="1160.811" cy="665.541" r="39.189"/>
</g>
</svg>
